# xmcd
#
# Track frame offsets: 
#        150
#        25265
#        39642
#        59877
#        73252
#        93680
#        115827
#        135745
#        168247
#        182425
#        198027
#        227945
#        249207
#
# Disc length: 3540 seconds
#
# Revision: 2
# Processed by: cddbd v1.5.2PL0 Copyright (c) Steve Scherf et al.
# Submitted via: ExactAudioCopy v0.99pb4
#
DISCID=b60dd20d
DTITLE=Mike Morgan and The Crawl - Texas Man
DYEAR=2000
DGENRE=Blues
TTITLE0=Texas Man
TTITLE1=The Way You Left Me Girl
TTITLE2=Wild About You
TTITLE3=Guitar Rhumbo
TTITLE4=Gimmie Back My Wig
TTITLE5=I'm Gonna Love You
TTITLE6=I Had To Put You Down
TTITLE7=Five Thoiusand Miles From Home
TTITLE8=Taylor's Rock
TTITLE9=I've Got A Woman
TTITLE10=See Me In The Evening
TTITLE11=Whoa My Darling
TTITLE12=Palmyra Stomp
EXTD=
EXTT0=
EXTT1=
EXTT2=
EXTT3=
EXTT4=
EXTT5=
EXTT6=
EXTT7=
EXTT8=
EXTT9=
EXTT10=
EXTT11=
EXTT12=
PLAYORDER=
